HIERARCHY
ROOT hip
{
  OFFSET 8.37765 71.6584 -14.0385
  CHANNELS 6 Xposition Yposition Zposition Zrotation Xrotation Yrotation
  JOINT abdomen
  {
    OFFSET 0 20.6881 -0.73152
    CHANNELS 3 Zrotation Xrotation Yrotation
    JOINT chest
    {
      OFFSET 0 11.7043 -0.48768
      CHANNELS 3 Zrotation Xrotation Yrotation
      JOINT neck
      {
        OFFSET 0 22.1894 -2.19456
        CHANNELS 3 Zrotation Xrotation Yrotation
        JOINT head
        {
          OFFSET -0.24384 7.07133 1.2192
          CHANNELS 3 Zrotation Xrotation Yrotation
          JOINT leftEye
          {
            OFFSET 4.14528 8.04674 8.04672
            CHANNELS 3 Zrotation Xrotation Yrotation
            End Site
            {
              OFFSET 1 0 0
            }
          }
          JOINT rightEye
          {
            OFFSET -3.6576 8.04674 8.04672
            CHANNELS 3 Zrotation Xrotation Yrotation
            End Site
            {
              OFFSET 1 0 0
            }
          }
        }
      }
      JOINT rCollar
      {
        OFFSET -2.68224 19.2634 -4.8768
        CHANNELS 3 Zrotation Xrotation Yrotation
        JOINT rShldr
        {
          OFFSET -8.77824 -1.95073 1.46304
          CHANNELS 3 Zrotation Xrotation Yrotation
          JOINT rForeArm
          {
            OFFSET -28.1742 -1.7115 0.48768
            CHANNELS 3 Zrotation Xrotation Yrotation
            JOINT rHand
            {
              OFFSET -22.5879 0.773209 7.07136
              CHANNELS 3 Zrotation Xrotation Yrotation
              JOINT rThumb1
              {
                OFFSET -1.2192 -0.487915 3.41376
                CHANNELS 3 Zrotation Xrotation Yrotation
                JOINT rThumb2
                {
                  OFFSET -3.37035 -0.52449 3.41376
                  CHANNELS 3 Zrotation Xrotation Yrotation
                  End Site
                  {
                    OFFSET -1.78271 -1.18214 1.43049
                  }
                }
              }
              JOINT rIndex1
              {
                OFFSET -7.75947 0.938293 5.60832
                CHANNELS 3 Zrotation Xrotation Yrotation
                JOINT rIndex2
                {
                  OFFSET -2.54057 -0.884171 1.56538
                  CHANNELS 3 Zrotation Xrotation Yrotation
                  End Site
                  {
                    OFFSET -1.62519 -0.234802 1.16502
                  }
                }
              }
              JOINT rMid1
              {
                OFFSET -8.24714 1.18213 3.41376
                CHANNELS 3 Zrotation Xrotation Yrotation
                JOINT rMid2
                {
                  OFFSET -3.10165 -0.590103 1.0647
                  CHANNELS 3 Zrotation Xrotation Yrotation
                  End Site
                  {
                    OFFSET -2.48547 -0.328903 0.83742
                  }
                }
              }
              JOINT rRing1
              {
                OFFSET -8.82822 0.546677 1.51678
                CHANNELS 3 Zrotation Xrotation Yrotation
                JOINT rRing2
                {
                  OFFSET -2.60934 -0.819778 -0.0198488
                  CHANNELS 3 Zrotation Xrotation Yrotation
                  End Site
                  {
                    OFFSET -2.33842 -0.294052 0.168128
                  }
                }
              }
              JOINT rPinky1
              {
                OFFSET -8.27202 -0.0477905 -0.4584
                CHANNELS 3 Zrotation Xrotation Yrotation
                JOINT rPinky2
                {
                  OFFSET -1.82734 -0.647385 -0.700984
                  CHANNELS 3 Zrotation Xrotation Yrotation
                  End Site
                  {
                    OFFSET -1.69225 -0.51767 -0.607171
                  }
                }
              }
            }
          }
        }
      }
      JOINT lCollar
      {
        OFFSET 2.68224 19.2634 -4.8768
        CHANNELS 3 Zrotation Xrotation Yrotation
        JOINT lShldr
        {
          OFFSET 8.77824 -1.95073 1.46304
          CHANNELS 3 Zrotation Xrotation Yrotation
          JOINT lForeArm
          {
            OFFSET 28.1742 -1.7115 0.48768
            CHANNELS 3 Zrotation Xrotation Yrotation
            JOINT lHand
            {
              OFFSET 22.5879 0.773209 7.07136
              CHANNELS 3 Zrotation Xrotation Yrotation
              JOINT lThumb1
              {
                OFFSET 1.2192 -0.487915 3.41376
                CHANNELS 3 Zrotation Xrotation Yrotation
                JOINT lThumb2
                {
                  OFFSET 3.37035 -0.52449 3.41376
                  CHANNELS 3 Zrotation Xrotation Yrotation
                  End Site
                  {
                    OFFSET 1.78271 -1.18214 1.43049
                  }
                }
              }
              JOINT lIndex1
              {
                OFFSET 7.75947 0.938293 5.60832
                CHANNELS 3 Zrotation Xrotation Yrotation
                JOINT lIndex2
                {
                  OFFSET 2.54057 -0.884171 1.56538
                  CHANNELS 3 Zrotation Xrotation Yrotation
                  End Site
                  {
                    OFFSET 1.62519 -0.234802 1.16502
                  }
                }
              }
              JOINT lMid1
              {
                OFFSET 8.24714 1.18213 3.41376
                CHANNELS 3 Zrotation Xrotation Yrotation
                JOINT lMid2
                {
                  OFFSET 3.10165 -0.590103 1.0647
                  CHANNELS 3 Zrotation Xrotation Yrotation
                  End Site
                  {
                    OFFSET 2.48547 -0.328903 0.83742
                  }
                }
              }
              JOINT lRing1
              {
                OFFSET 8.82822 0.546677 1.51678
                CHANNELS 3 Zrotation Xrotation Yrotation
                JOINT lRing2
                {
                  OFFSET 2.60934 -0.819778 -0.0198488
                  CHANNELS 3 Zrotation Xrotation Yrotation
                  End Site
                  {
                    OFFSET 2.33842 -0.294052 0.168128
                  }
                }
              }
              JOINT lPinky1
              {
                OFFSET 8.27202 -0.0477905 -0.4584
                CHANNELS 3 Zrotation Xrotation Yrotation
                JOINT lPinky2
                {
                  OFFSET 1.82734 -0.647385 -0.700984
                  CHANNELS 3 Zrotation Xrotation Yrotation
                  End Site
                  {
                    OFFSET 1.69225 -0.51767 -0.607171
                  }
                }
              }
            }
          }
        }
      }
    }
  }
  JOINT rButtock
  {
    OFFSET -8.77824 4.35084 1.2192
    CHANNELS 3 Zrotation Xrotation Yrotation
    JOINT rThigh
    {
      OFFSET 0 -1.70687 -2.19456
      CHANNELS 3 Zrotation Xrotation Yrotation
      JOINT rShin
      {
        OFFSET 0 -36.8199 0.73152
        CHANNELS 3 Zrotation Xrotation Yrotation
        JOINT rFoot
        {
          OFFSET 0.73152 -45.1104 -5.12064
          CHANNELS 3 Zrotation Xrotation Yrotation
          End Site
          {
            OFFSET -1.1221 -3.69964 12.103
          }
        }
      }
    }
  }
  JOINT lButtock
  {
    OFFSET 8.77824 4.35084 1.2192
    CHANNELS 3 Zrotation Xrotation Yrotation
    JOINT lThigh
    {
      OFFSET 0 -1.70687 -2.19456
      CHANNELS 3 Zrotation Xrotation Yrotation
      JOINT lShin
      {
        OFFSET 0 -36.8199 0.73152
        CHANNELS 3 Zrotation Xrotation Yrotation
        JOINT lFoot
        {
          OFFSET -0.73152 -45.1104 -5.12064
          CHANNELS 3 Zrotation Xrotation Yrotation
          End Site
          {
            OFFSET 1.1221 -3.69964 12.103
          }
        }
      }
    }
  }
}
MOTION
Frames:	4
Frame Time:	0.00833333
8.13532 71.9364 -14.6736 -0.47312 -5.94136 4.25166 -0.57877 4.74244 -1.95548 4.00494 -1.85536 -0.362892 -2.61854 -3.16681 -1.90864 1.22955 1.86645 -2.94126 -0 0 0 -0 0 0 -2.46301e-015 2.12759e-013 -1.65939e-014 18.8834 -2.11667 44.3198 -25.8126 -22.9633 56.0028 -0.110805 9.4504 1.34047 -4.78819e-010 -1.76956e-009 -9.03739e-010 -8.33636e-010 -3.04981e-009 -1.5555e-009 -4.78817e-010 -1.76955e-009 -9.03737e-010 7.73091 5.47488 0.417314 -4.7882e-010 -1.76957e-009 -9.03734e-010 2.90554 0.965183 0.102902 -4.78816e-010 -1.76956e-009 -9.03732e-010 10.2786 0.731801 0.0259123 -4.78823e-010 -1.76956e-009 -9.03729e-010 2.22167 -0.733487 -0.20892 -2.55533e-015 2.12764e-013 -1.68858e-014 -34.0317 -0.0594616 -50.6853 26.7634 -25.5784 -60.2085 0.707198 23.1714 -3.44858 -3.27479e-010 -1.38529e-009 9.7018e-010 -5.48552e-010 -2.40526e-009 1.67902e-009 -3.27481e-010 -1.38529e-009 9.70183e-010 -7.73091 5.47488 -0.417314 -3.27479e-010 -1.38528e-009 9.70184e-010 -2.90554 0.965183 -0.102902 -3.27485e-010 -1.38529e-009 9.7018e-010 -10.2786 0.731801 -0.0259123 -3.27471e-010 -1.38528e-009 9.70178e-010 -2.22167 -0.733487 0.20892 -2.03217e-016 0 -3.88251e-019 -18.799 -21.6787 -17.9149 -1.36858 64.9337 2.09358 0.557253 -27.3852 0.562777 2.03217e-016 0 3.88251e-019 13.5735 -23.6904 5.79289 1.26792 63.0782 -1.80807 -1.915 -27.9464 -3.28743 
8.13789 71.9315 -14.6694 -0.474702 -5.94186 4.24702 -0.57219 4.73383 -1.96124 4.0019 -1.86228 -0.362583 -2.61048 -3.14406 -1.90607 1.20816 1.86213 -2.93906 -0 0 0 -0 0 0 -1.92428e-015 2.01964e-013 -4.35338e-014 18.8814 -2.09543 44.322 -25.8121 -22.9619 56.0003 -0.110644 9.44363 1.33949 -4.60408e-010 -1.58879e-009 -8.46053e-010 -8.01635e-010 -2.73736e-009 -1.4561e-009 -4.60406e-010 -1.58879e-009 -8.4605e-010 7.73091 5.47488 0.417314 -4.6041e-010 -1.5888e-009 -8.4605e-010 2.90554 0.965183 0.102902 -4.60406e-010 -1.58879e-009 -8.46044e-010 10.2786 0.731801 0.0259123 -4.60413e-010 -1.58879e-009 -8.4604e-010 2.22167 -0.733487 -0.20892 -2.05156e-015 2.01966e-013 -4.38817e-014 -34.0327 -0.051675 -50.6662 26.7629 -25.5774 -60.208 0.706707 23.1639 -3.44733 -2.11863e-010 -1.58465e-009 1.06394e-009 -3.47264e-010 -2.74717e-009 1.83893e-009 -2.11865e-010 -1.58465e-009 1.06394e-009 -7.73091 5.47488 -0.417314 -2.11862e-010 -1.58465e-009 1.06395e-009 -2.90554 0.965183 -0.102902 -2.1187e-010 -1.58465e-009 1.06394e-009 -10.2786 0.731801 -0.0259123 -2.11855e-010 -1.58464e-009 1.06393e-009 -2.22167 -0.733487 0.20892 -2.03217e-016 0 -3.88251e-019 -18.8009 -21.6801 -17.9179 -1.36944 64.9431 2.0942 0.563028 -27.3904 0.572384 2.03217e-016 0 3.88251e-019 13.578 -23.6887 5.79353 1.26938 63.0856 -1.81018 -1.91625 -27.9549 -3.28864 
8.131 71.928 -14.662 -0.478347 -5.94418 4.23963 -0.562032 4.72839 -1.96168 3.99711 -1.87357 -0.36215 -2.59832 -3.11865 -1.90386 1.17871 1.8572 -2.93856 -0 0 0 -0 0 0 -4.07763e-016 1.70883e-013 -1.45132e-014 18.8799 -2.07242 44.319 -25.8129 -22.9635 56.0019 -0.110682 9.44519 1.33971 -3.30587e-010 -1.4958e-009 -7.98071e-010 -5.76483e-010 -2.57961e-009 -1.37479e-009 -3.30586e-010 -1.49581e-009 -7.98073e-010 7.73091 5.47488 0.417314 -3.30589e-010 -1.49582e-009 -7.9807e-010 2.90554 0.965183 0.102902 -3.30585e-010 -1.4958e-009 -7.98064e-010 10.2786 0.731801 0.0259123 -3.30592e-010 -1.4958e-009 -7.9806e-010 2.22167 -0.733487 -0.20892 -5.43095e-016 1.70883e-013 -1.48642e-014 -34.0297 -0.0387241 -50.6478 26.7621 -25.5758 -60.207 0.706501 23.1607 -3.44681 -2.71888e-010 -1.24936e-009 8.55208e-010 -4.55059e-010 -2.16876e-009 1.4799e-009 -2.7189e-010 -1.24935e-009 8.55211e-010 -7.73091 5.47488 -0.417314 -2.71887e-010 -1.24936e-009 8.55218e-010 -2.90554 0.965183 -0.102902 -2.71896e-010 -1.24935e-009 8.55206e-010 -10.2786 0.731801 -0.0259123 -2.7188e-010 -1.24935e-009 8.55202e-010 -2.22167 -0.733487 0.20892 -2.03217e-016 0 -3.88251e-019 -18.7989 -21.6807 -17.9184 -1.37049 64.9536 2.09508 0.566109 -27.3948 0.57713 2.03217e-016 0 3.88251e-019 13.5843 -23.6822 5.79432 1.27003 63.0902 -1.81105 -1.91553 -27.9611 -3.28626 
8.13848 71.9246 -14.6548 -0.484191 -5.9477 4.23022 -0.548228 4.7245 -1.95875 3.99103 -1.88785 -0.361586 -2.58314 -3.09101 -1.90176 1.14257 1.85229 -2.93907 -0 0 0 -0 0 0 1.59467e-015 1.19595e-013 4.77984e-014 18.8779 -2.04724 44.3123 -25.8145 -22.9669 56.006 -0.110845 9.45208 1.34071 -1.10738e-010 -1.383e-009 -7.28158e-010 -1.95198e-010 -2.38978e-009 -1.25668e-009 -1.10738e-010 -1.38301e-009 -7.28169e-010 7.73091 5.47488 0.417314 -1.1074e-010 -1.38301e-009 -7.2816e-010 2.90554 0.965183 0.102902 -1.10734e-010 -1.383e-009 -7.28154e-010 10.2786 0.731801 0.0259123 -1.10741e-010 -1.383e-009 -7.2815e-010 2.22167 -0.733487 -0.20892 1.46487e-015 1.19591e-013 4.74754e-014 -34.0243 -0.0223327 -50.6293 26.7611 -25.5736 -60.2057 0.706438 23.1597 -3.44665 -4.20148e-010 -5.5208e-010 4.36688e-010 -7.19197e-010 -9.66417e-010 7.6043e-010 -4.20147e-010 -5.52072e-010 4.36691e-010 -7.73091 5.47488 -0.417314 -4.20146e-010 -5.5208e-010 4.36694e-010 -2.90554 0.965183 -0.102902 -4.20154e-010 -5.52072e-010 4.36683e-010 -10.2786 0.731801 -0.0259123 -4.20139e-010 -5.52076e-010 4.36676e-010 -2.22167 -0.733487 0.20892 -2.03217e-016 0 -3.88251e-019 -18.7934 -21.681 -17.917 -1.37164 64.9645 2.09611 0.567611 -27.3985 0.578966 2.03217e-016 0 3.88251e-019 13.5929 -23.6728 5.79535 1.27025 63.0933 -1.81125 -1.91384 -27.9662 -3.28203 
